<mxfile host="app.diagrams.net" agent="Mozilla/5.0 (Windows NT 10.0; Win64; x64) AppleWebKit/537.36 (KHTML, like Gecko) Chrome/133.0.0.0 Safari/537.36" version="26.0.11">
  <diagram name="PÃ¡gina-1" id="EP9doh8U3_-xuT3AuORs">
    <mxGraphModel dx="1434" dy="746" grid="1" gridSize="10" guides="1" tooltips="1" connect="1" arrows="1" fold="1" page="1" pageScale="1" pageWidth="1169" pageHeight="827" math="0" shadow="0">
      <root>
        <mxCell id="0" />
        <mxCell id="1" parent="0" />
        <mxCell id="XP-EpyaI0c7qpS_tezAw-1" style="edgeStyle=orthogonalEdgeStyle;rounded=0;orthogonalLoop=1;jettySize=auto;html=1;entryX=0.5;entryY=0;entryDx=0;entryDy=0;" edge="1" parent="1" source="XP-EpyaI0c7qpS_tezAw-2" target="XP-EpyaI0c7qpS_tezAw-5">
          <mxGeometry relative="1" as="geometry" />
        </mxCell>
        <mxCell id="XP-EpyaI0c7qpS_tezAw-2" value="INICIO" style="strokeWidth=2;html=1;shape=mxgraph.flowchart.start_1;whiteSpace=wrap;" vertex="1" parent="1">
          <mxGeometry x="566" y="110" width="100" height="60" as="geometry" />
        </mxCell>
        <mxCell id="XP-EpyaI0c7qpS_tezAw-3" value="FIM" style="strokeWidth=2;html=1;shape=mxgraph.flowchart.start_1;whiteSpace=wrap;" vertex="1" parent="1">
          <mxGeometry x="575" y="560" width="100" height="60" as="geometry" />
        </mxCell>
        <mxCell id="XP-EpyaI0c7qpS_tezAw-4" style="edgeStyle=orthogonalEdgeStyle;rounded=0;orthogonalLoop=1;jettySize=auto;html=1;entryX=0.5;entryY=0;entryDx=0;entryDy=0;" edge="1" parent="1" source="XP-EpyaI0c7qpS_tezAw-5" target="XP-EpyaI0c7qpS_tezAw-6">
          <mxGeometry relative="1" as="geometry" />
        </mxCell>
        <mxCell id="XP-EpyaI0c7qpS_tezAw-5" value="COTACAO" style="html=1;strokeWidth=2;shape=manualInput;whiteSpace=wrap;rounded=1;size=26;arcSize=11;" vertex="1" parent="1">
          <mxGeometry x="566" y="190" width="100" height="70" as="geometry" />
        </mxCell>
        <mxCell id="XP-EpyaI0c7qpS_tezAw-6" value="VALOR_DOLAR" style="html=1;strokeWidth=2;shape=manualInput;whiteSpace=wrap;rounded=1;size=26;arcSize=11;" vertex="1" parent="1">
          <mxGeometry x="566" y="287" width="100" height="70" as="geometry" />
        </mxCell>
        <mxCell id="XP-EpyaI0c7qpS_tezAw-7" style="edgeStyle=orthogonalEdgeStyle;rounded=0;orthogonalLoop=1;jettySize=auto;html=1;" edge="1" parent="1" source="XP-EpyaI0c7qpS_tezAw-8" target="XP-EpyaI0c7qpS_tezAw-10">
          <mxGeometry relative="1" as="geometry" />
        </mxCell>
        <mxCell id="XP-EpyaI0c7qpS_tezAw-8" value="VALOR_REAL = VALOR_DOLAR * COTACAO" style="rounded=1;whiteSpace=wrap;html=1;absoluteArcSize=1;arcSize=14;strokeWidth=2;" vertex="1" parent="1">
          <mxGeometry x="490" y="390" width="270" height="50" as="geometry" />
        </mxCell>
        <mxCell id="XP-EpyaI0c7qpS_tezAw-9" style="edgeStyle=orthogonalEdgeStyle;rounded=0;orthogonalLoop=1;jettySize=auto;html=1;" edge="1" parent="1" source="XP-EpyaI0c7qpS_tezAw-10" target="XP-EpyaI0c7qpS_tezAw-3">
          <mxGeometry relative="1" as="geometry" />
        </mxCell>
        <mxCell id="XP-EpyaI0c7qpS_tezAw-10" value="VALOR_REAL" style="strokeWidth=2;html=1;shape=mxgraph.flowchart.display;whiteSpace=wrap;" vertex="1" parent="1">
          <mxGeometry x="575" y="470" width="100" height="60" as="geometry" />
        </mxCell>
        <mxCell id="XP-EpyaI0c7qpS_tezAw-11" style="edgeStyle=orthogonalEdgeStyle;rounded=0;orthogonalLoop=1;jettySize=auto;html=1;entryX=0.467;entryY=-0.06;entryDx=0;entryDy=0;entryPerimeter=0;" edge="1" parent="1" source="XP-EpyaI0c7qpS_tezAw-6" target="XP-EpyaI0c7qpS_tezAw-8">
          <mxGeometry relative="1" as="geometry" />
        </mxCell>
        <mxCell id="XP-EpyaI0c7qpS_tezAw-12" value="VALOR_REAL&lt;div&gt;84&lt;/div&gt;" style="strokeWidth=2;html=1;shape=mxgraph.flowchart.display;whiteSpace=wrap;" vertex="1" parent="1">
          <mxGeometry x="170" y="390" width="100" height="60" as="geometry" />
        </mxCell>
        <mxCell id="XP-EpyaI0c7qpS_tezAw-13" value="COTACAO&lt;div&gt;5,60&lt;/div&gt;&lt;div&gt;VALOR_DOLAR&lt;/div&gt;&lt;div&gt;15,00&lt;/div&gt;&lt;div&gt;VALOR_REAL&lt;/div&gt;&lt;div&gt;15,00 * 5,60&amp;nbsp;&lt;/div&gt;" style="rounded=1;whiteSpace=wrap;html=1;absoluteArcSize=1;arcSize=14;strokeWidth=2;" vertex="1" parent="1">
          <mxGeometry x="140" y="240" width="170" height="100" as="geometry" />
        </mxCell>
      </root>
    </mxGraphModel>
  </diagram>
</mxfile>
